<mxfile host="app.diagrams.net" modified="2024-10-15T09:09:54.954Z" agent="Mozilla/5.0 (Macintosh; Intel Mac OS X 10_15_7) AppleWebKit/537.36 (KHTML, like Gecko) Chrome/129.0.0.0 Safari/537.36" etag="aKbjFqNwWW6G5iFTkbw0" version="24.6.5" type="github">
  <diagram name="Page-1" id="Pc1ulpSU8CZkFv-urLeA">
    <mxGraphModel dx="1189" dy="689" grid="1" gridSize="10" guides="1" tooltips="1" connect="1" arrows="1" fold="1" page="1" pageScale="1" pageWidth="850" pageHeight="1100" math="0" shadow="0">
      <root>
        <mxCell id="0" />
        <mxCell id="1" parent="0" />
        <mxCell id="c8jjE9hKJMvhJXmTCoBX-1" value="Postgresql" style="shape=cylinder3;whiteSpace=wrap;html=1;boundedLbl=1;backgroundOutline=1;size=15;" vertex="1" parent="1">
          <mxGeometry x="680" y="130" width="60" height="80" as="geometry" />
        </mxCell>
        <mxCell id="c8jjE9hKJMvhJXmTCoBX-2" value="MySql" style="shape=cylinder3;whiteSpace=wrap;html=1;boundedLbl=1;backgroundOutline=1;size=15;" vertex="1" parent="1">
          <mxGeometry x="440" y="150" width="60" height="80" as="geometry" />
        </mxCell>
      </root>
    </mxGraphModel>
  </diagram>
</mxfile>
